<svg xmlns="http://www.w3.org/2000/svg" width="1100" height="1420" font-family="monospace" font-size="11">
  <defs>
    <style>
      text { font-family: 'Courier New', monospace; }
      .title  { font-size:15px; font-weight:bold; fill:#111; }
      .hdr    { font-size:10px; font-weight:bold; fill:#fff; }
      .lbl    { font-size:10px; fill:#111; }
      .lbl-w  { font-size:10px; fill:#fff; font-weight:bold; }
      .small  { font-size:9px;  fill:#555; }
      .formula{ font-size:11px; fill:#1a237e; font-style:italic; }
      .note   { font-size:10px; fill:#444; }
    </style>
  </defs>

  <!-- ── background ── -->
  <rect width="1100" height="1420" fill="#fafafa"/>

  <!-- ══════════════════════════════════════════════════════
       TITLE
  ══════════════════════════════════════════════════════ -->
  <text x="550" y="30" text-anchor="middle" class="title">GAL22V10 AND Array — JEDEC Fuse Map (fuses 0 – 5807)</text>
  <text x="550" y="48" text-anchor="middle" font-size="10" fill="#555">132 rows × 44 columns   |   fuse address = row × 44 + column</text>

  <!-- ══════════════════════════════════════════════════════
       COLUMN HEADER (44 columns, drawn as thin strips)
       Left margin: 220px, each column 16px wide → total 704px
  ══════════════════════════════════════════════════════ -->

  <!-- column group labels (top axis) -->
  <!-- We draw column pairs as groups -->

  <!-- Y-start for the array body -->
  <!-- Header row 1: group labels at y=65 -->
  <!-- Header row 2: col numbers at y=80 -->
  <!-- Array starts at y=92 -->

  <!-- ── column band colours ──
       CLK pair        col 0-1   #546e7a
       feedback cols   col 2,6,10,14,18,22,26,30,34,38  → pairs ending in 2n  #1565c0
       input cols      col 4,8,12,16,20,24,28,32,36,40  → pairs             #2e7d32
       I11 pair        col 42-43  #6a1b9a
  -->

  <!-- Helper: x(col) = 220 + col*16 -->

  <!-- ── Draw column header rectangles ── -->
  <!-- CLK cols 0,1 -->
  <rect x="220" y="58" width="32" height="14" fill="#546e7a"/>
  <text x="236" y="68" text-anchor="middle" class="hdr">CLK</text>

  <!-- Feedback + input pairs cols 2..41 -->
  <!-- col 2-3: O1 fb pin23 -->
  <rect x="252" y="58" width="32" height="14" fill="#1565c0"/>
  <text x="268" y="68" text-anchor="middle" class="hdr">p23 fb</text>
  <!-- col 4-5: I1 pin2 -->
  <rect x="284" y="58" width="32" height="14" fill="#2e7d32"/>
  <text x="300" y="68" text-anchor="middle" class="hdr">p2 I1</text>

  <!-- col 6-7: O2 fb pin22 -->
  <rect x="316" y="58" width="32" height="14" fill="#1565c0"/>
  <text x="332" y="68" text-anchor="middle" class="hdr">p22 fb</text>
  <!-- col 8-9: I2 pin3 -->
  <rect x="348" y="58" width="32" height="14" fill="#2e7d32"/>
  <text x="364" y="68" text-anchor="middle" class="hdr">p3 I2</text>

  <!-- col 10-11: O3 fb pin21 -->
  <rect x="380" y="58" width="32" height="14" fill="#1565c0"/>
  <text x="396" y="68" text-anchor="middle" class="hdr">p21 fb</text>
  <!-- col 12-13: I3 pin4 -->
  <rect x="412" y="58" width="32" height="14" fill="#2e7d32"/>
  <text x="428" y="68" text-anchor="middle" class="hdr">p4 I3</text>

  <!-- col 14-15: O4 fb pin20 -->
  <rect x="444" y="58" width="32" height="14" fill="#1565c0"/>
  <text x="460" y="68" text-anchor="middle" class="hdr">p20 fb</text>
  <!-- col 16-17: I4 pin5 -->
  <rect x="476" y="58" width="32" height="14" fill="#2e7d32"/>
  <text x="492" y="68" text-anchor="middle" class="hdr">p5 I4</text>

  <!-- col 18-19: O5 fb pin19 -->
  <rect x="508" y="58" width="32" height="14" fill="#1565c0"/>
  <text x="524" y="68" text-anchor="middle" class="hdr">p19 fb</text>
  <!-- col 20-21: I5 pin6 -->
  <rect x="540" y="58" width="32" height="14" fill="#2e7d32"/>
  <text x="556" y="68" text-anchor="middle" class="hdr">p6 I5</text>

  <!-- col 22-23: O6 fb pin18 -->
  <rect x="572" y="58" width="32" height="14" fill="#1565c0"/>
  <text x="588" y="68" text-anchor="middle" class="hdr">p18 fb</text>
  <!-- col 24-25: I6 pin7 -->
  <rect x="604" y="58" width="32" height="14" fill="#2e7d32"/>
  <text x="620" y="68" text-anchor="middle" class="hdr">p7 I6</text>

  <!-- col 26-27: O7 fb pin17 -->
  <rect x="636" y="58" width="32" height="14" fill="#1565c0"/>
  <text x="652" y="68" text-anchor="middle" class="hdr">p17 fb</text>
  <!-- col 28-29: I7 pin8 -->
  <rect x="668" y="58" width="32" height="14" fill="#2e7d32"/>
  <text x="684" y="68" text-anchor="middle" class="hdr">p8 I7</text>

  <!-- col 30-31: O8 fb pin16 -->
  <rect x="700" y="58" width="32" height="14" fill="#1565c0"/>
  <text x="716" y="68" text-anchor="middle" class="hdr">p16 fb</text>
  <!-- col 32-33: I8 pin9 -->
  <rect x="732" y="58" width="32" height="14" fill="#2e7d32"/>
  <text x="748" y="68" text-anchor="middle" class="hdr">p9 I8</text>

  <!-- col 34-35: O9 fb pin15 -->
  <rect x="764" y="58" width="32" height="14" fill="#1565c0"/>
  <text x="780" y="68" text-anchor="middle" class="hdr">p15 fb</text>
  <!-- col 36-37: I9 pin10 -->
  <rect x="796" y="58" width="32" height="14" fill="#2e7d32"/>
  <text x="812" y="68" text-anchor="middle" class="hdr">p10 I9</text>

  <!-- col 38-39: O10 fb pin14 -->
  <rect x="828" y="58" width="32" height="14" fill="#1565c0"/>
  <text x="844" y="68" text-anchor="middle" class="hdr">p14 fb</text>
  <!-- col 40-41: I10 pin11 -->
  <rect x="860" y="58" width="32" height="14" fill="#2e7d32"/>
  <text x="876" y="68" text-anchor="middle" class="hdr">p11 I10</text>

  <!-- col 42-43: I11 pin13 -->
  <rect x="892" y="58" width="32" height="14" fill="#6a1b9a"/>
  <text x="908" y="68" text-anchor="middle" class="hdr">p13 I11</text>

  <!-- ── column numbers row (0..43, one per 16px) ── -->
  <!-- We draw every other number to avoid cramping -->
  <rect x="220" y="72" width="704" height="12" fill="#eceff1"/>
  <!-- pairs: 0, 2, 4, ... 42 (true col numbers, even) -->
  <text x="220"  y="81" class="small">0</text>
  <text x="252"  y="81" class="small">2</text>
  <text x="284"  y="81" class="small">4</text>
  <text x="316"  y="81" class="small">6</text>
  <text x="348"  y="81" class="small">8</text>
  <text x="380"  y="81" class="small">10</text>
  <text x="412"  y="81" class="small">12</text>
  <text x="444"  y="81" class="small">14</text>
  <text x="476"  y="81" class="small">16</text>
  <text x="508"  y="81" class="small">18</text>
  <text x="540"  y="81" class="small">20</text>
  <text x="572"  y="81" class="small">22</text>
  <text x="604"  y="81" class="small">24</text>
  <text x="636"  y="81" class="small">26</text>
  <text x="668"  y="81" class="small">28</text>
  <text x="700"  y="81" class="small">30</text>
  <text x="732"  y="81" class="small">32</text>
  <text x="764"  y="81" class="small">34</text>
  <text x="796"  y="81" class="small">36</text>
  <text x="828"  y="81" class="small">38</text>
  <text x="860"  y="81" class="small">40</text>
  <text x="892"  y="81" class="small">42</text>

  <!-- True/Compl sub-labels -->
  <text x="932"  y="68" class="small" fill="#1565c0">■ = feedback (OLMC out)</text>
  <text x="932"  y="80" class="small" fill="#2e7d32">■ = input pin</text>
  <text x="932"  y="92" class="small" fill="#546e7a">■ = CLK (pin 1)</text>
  <text x="932"  y="104" class="small" fill="#6a1b9a">■ = I11 (pin 13)</text>
  <text x="932"  y="116" class="small" fill="#b71c1c">■ = SP row</text>
  <text x="932"  y="128" class="small" fill="#f57f17">■ = AR / OE rows</text>
  <text x="932"  y="140" class="small" fill="#555">even col = true literal</text>
  <text x="932"  y="152" class="small" fill="#555">odd  col = complement</text>

  <!-- ══════════════════════════════════════════════════════
       ROW BANDS
       Each row is 8px tall; 132 rows → 1056px total
       Array body starts at y=84
  ══════════════════════════════════════════════════════ -->

  <!-- Row data: [startRow, endRow, label, rowColor, textColor, fuse_start, fuse_end, pin] -->
  <!-- We draw coloured bands per logical group -->

  <!-- Row 0: AR -->
  <rect x="220" y="84" width="704" height="8" fill="#f57f17" opacity="0.85"/>
  <!-- Row 1: OE -->
  <rect x="220" y="92" width="704" height="8" fill="#f57f17" opacity="0.65"/>

  <!-- OLMC9 pin23: rows 2-9 (8 rows) -->
  <rect x="220" y="100" width="704" height="64" fill="#e3f2fd"/>
  <!-- OLMC9 SP: row 10 -->
  <rect x="220" y="164" width="704" height="8" fill="#b71c1c" opacity="0.7"/>

  <!-- OLMC8 pin22: rows 11-20 (10 rows) -->
  <rect x="220" y="172" width="704" height="80" fill="#e8f5e9"/>
  <!-- OLMC8 SP: row 21 -->
  <rect x="220" y="252" width="704" height="8" fill="#b71c1c" opacity="0.7"/>

  <!-- OLMC7 pin21: rows 22-33 (12 rows) -->
  <rect x="220" y="260" width="704" height="96" fill="#e3f2fd"/>
  <!-- OLMC7 SP: row 34 -->
  <rect x="220" y="356" width="704" height="8" fill="#b71c1c" opacity="0.7"/>

  <!-- OLMC6 pin20: rows 35-48 (14 rows) -->
  <rect x="220" y="364" width="704" height="112" fill="#e8f5e9"/>
  <!-- OLMC6 SP: row 49 -->
  <rect x="220" y="476" width="704" height="8" fill="#b71c1c" opacity="0.7"/>

  <!-- OLMC5 pin19: rows 50-65 (16 rows) -->
  <rect x="220" y="484" width="704" height="128" fill="#e3f2fd"/>
  <!-- OLMC5 SP: row 66 -->
  <rect x="220" y="612" width="704" height="8" fill="#b71c1c" opacity="0.7"/>

  <!-- OLMC4 pin18: rows 67-82 (16 rows) -->
  <rect x="220" y="620" width="704" height="128" fill="#e8f5e9"/>
  <!-- OLMC4 SP: row 83 -->
  <rect x="220" y="748" width="704" height="8" fill="#b71c1c" opacity="0.7"/>

  <!-- OLMC3 pin17: rows 84-97 (14 rows) -->
  <rect x="220" y="756" width="704" height="112" fill="#e3f2fd"/>
  <!-- OLMC3 SP: row 98 -->
  <rect x="220" y="868" width="704" height="8" fill="#b71c1c" opacity="0.7"/>

  <!-- OLMC2 pin16: rows 99-110 (12 rows) -->
  <rect x="220" y="876" width="704" height="96" fill="#e8f5e9"/>
  <!-- OLMC2 SP: row 111 -->
  <rect x="220" y="972" width="704" height="8" fill="#b71c1c" opacity="0.7"/>

  <!-- OLMC1 pin15: rows 112-121 (10 rows) -->
  <rect x="220" y="980" width="704" height="80" fill="#e3f2fd"/>
  <!-- OLMC1 SP: row 122 -->
  <rect x="220" y="1060" width="704" height="8" fill="#b71c1c" opacity="0.7"/>

  <!-- OLMC0 pin14: rows 123-130 (8 rows) -->
  <rect x="220" y="1068" width="704" height="64" fill="#e8f5e9"/>
  <!-- OLMC0 SP: row 131 -->
  <rect x="220" y="1132" width="704" height="8" fill="#b71c1c" opacity="0.7"/>

  <!-- Grid lines: vertical every 32px (pair boundaries) -->
  <g stroke="#bdbdbd" stroke-width="0.5">
    <line x1="220"  y1="84" x2="220"  y2="1140"/>
    <line x1="252"  y1="84" x2="252"  y2="1140"/>
    <line x1="284"  y1="84" x2="284"  y2="1140"/>
    <line x1="316"  y1="84" x2="316"  y2="1140"/>
    <line x1="348"  y1="84" x2="348"  y2="1140"/>
    <line x1="380"  y1="84" x2="380"  y2="1140"/>
    <line x1="412"  y1="84" x2="412"  y2="1140"/>
    <line x1="444"  y1="84" x2="444"  y2="1140"/>
    <line x1="476"  y1="84" x2="476"  y2="1140"/>
    <line x1="508"  y1="84" x2="508"  y2="1140"/>
    <line x1="540"  y1="84" x2="540"  y2="1140"/>
    <line x1="572"  y1="84" x2="572"  y2="1140"/>
    <line x1="604"  y1="84" x2="604"  y2="1140"/>
    <line x1="636"  y1="84" x2="636"  y2="1140"/>
    <line x1="668"  y1="84" x2="668"  y2="1140"/>
    <line x1="700"  y1="84" x2="700"  y2="1140"/>
    <line x1="732"  y1="84" x2="732"  y2="1140"/>
    <line x1="764"  y1="84" x2="764"  y2="1140"/>
    <line x1="796"  y1="84" x2="796"  y2="1140"/>
    <line x1="828"  y1="84" x2="828"  y2="1140"/>
    <line x1="860"  y1="84" x2="860"  y2="1140"/>
    <line x1="892"  y1="84" x2="892"  y2="1140"/>
    <line x1="924"  y1="84" x2="924"  y2="1140"/>
  </g>

  <!-- Sub-divider inside each pair (true | complement) every 16px -->
  <g stroke="#e0e0e0" stroke-width="0.3" stroke-dasharray="2,2">
    <line x1="236"  y1="84" x2="236"  y2="1140"/>
    <line x1="268"  y1="84" x2="268"  y2="1140"/>
    <line x1="300"  y1="84" x2="300"  y2="1140"/>
    <line x1="332"  y1="84" x2="332"  y2="1140"/>
    <line x1="364"  y1="84" x2="364"  y2="1140"/>
    <line x1="396"  y1="84" x2="396"  y2="1140"/>
    <line x1="428"  y1="84" x2="428"  y2="1140"/>
    <line x1="460"  y1="84" x2="460"  y2="1140"/>
    <line x1="492"  y1="84" x2="492"  y2="1140"/>
    <line x1="524"  y1="84" x2="524"  y2="1140"/>
    <line x1="556"  y1="84" x2="556"  y2="1140"/>
    <line x1="588"  y1="84" x2="588"  y2="1140"/>
    <line x1="620"  y1="84" x2="620"  y2="1140"/>
    <line x1="652"  y1="84" x2="652"  y2="1140"/>
    <line x1="684"  y1="84" x2="684"  y2="1140"/>
    <line x1="716"  y1="84" x2="716"  y2="1140"/>
    <line x1="748"  y1="84" x2="748"  y2="1140"/>
    <line x1="780"  y1="84" x2="780"  y2="1140"/>
    <line x1="812"  y1="84" x2="812"  y2="1140"/>
    <line x1="844"  y1="84" x2="844"  y2="1140"/>
    <line x1="876"  y1="84" x2="876"  y2="1140"/>
    <line x1="908"  y1="84" x2="908"  y2="1140"/>
  </g>

  <!-- Horizontal row boundaries -->
  <g stroke="#90a4ae" stroke-width="0.5">
    <line x1="220" y1="84"   x2="924" y2="84"/>    <!-- top of AR -->
    <line x1="220" y1="92"   x2="924" y2="92"/>    <!-- AR/OE boundary -->
    <line x1="220" y1="100"  x2="924" y2="100"/>   <!-- OE/OLMC9 boundary -->
    <line x1="220" y1="164"  x2="924" y2="164"/>   <!-- OLMC9 PTs end -->
    <line x1="220" y1="172"  x2="924" y2="172"/>   <!-- OLMC9 SP end -->
    <line x1="220" y1="252"  x2="924" y2="252"/>   <!-- OLMC8 PTs end -->
    <line x1="220" y1="260"  x2="924" y2="260"/>
    <line x1="220" y1="356"  x2="924" y2="356"/>
    <line x1="220" y1="364"  x2="924" y2="364"/>
    <line x1="220" y1="476"  x2="924" y2="476"/>
    <line x1="220" y1="484"  x2="924" y2="484"/>
    <line x1="220" y1="612"  x2="924" y2="612"/>
    <line x1="220" y1="620"  x2="924" y2="620"/>
    <line x1="220" y1="748"  x2="924" y2="748"/>
    <line x1="220" y1="756"  x2="924" y2="756"/>
    <line x1="220" y1="868"  x2="924" y2="868"/>
    <line x1="220" y1="876"  x2="924" y2="876"/>
    <line x1="220" y1="972"  x2="924" y2="972"/>
    <line x1="220" y1="980"  x2="924" y2="980"/>
    <line x1="220" y1="1060" x2="924" y2="1060"/>
    <line x1="220" y1="1068" x2="924" y2="1068"/>
    <line x1="220" y1="1132" x2="924" y2="1132"/>
    <line x1="220" y1="1140" x2="924" y2="1140"/>
  </g>

  <!-- ══════════════════════════════════════════════════════
       ROW LABELS  (left side)
  ══════════════════════════════════════════════════════ -->

  <!-- Row 0: AR  fuses 0-43 -->
  <rect x="0" y="84" width="218" height="8" fill="#f57f17"/>
  <text x="2"  y="91" class="lbl-w">row 0  AR (async reset)</text>
  <text x="148" y="91" class="lbl-w" font-size="9">0–43</text>

  <!-- Row 1: OE  fuses 44-87 -->
  <rect x="0" y="92" width="218" height="8" fill="#ef6c00"/>
  <text x="2"  y="99" class="lbl-w">row 1  OE (output enable)</text>
  <text x="148" y="99" class="lbl-w" font-size="9">44–87</text>

  <!-- OLMC9 pin23 rows 2-9 -->
  <rect x="0" y="100" width="218" height="64" fill="#90caf9"/>
  <text x="2"  y="111" class="lbl">rows 2–9   OLMC9 / pin 23</text>
  <text x="2"  y="122" class="lbl">(8 product terms)</text>
  <text x="2"  y="133" class="small">fuses 88–439</text>
  <text x="2"  y="145" class="small">row r, col c → fuse r×44+c</text>

  <!-- OLMC9 SP row 10 -->
  <rect x="0" y="164" width="218" height="8" fill="#b71c1c"/>
  <text x="2"  y="171" class="lbl-w">row 10  SP   pin 23</text>
  <text x="148" y="171" class="lbl-w" font-size="9">440–483</text>

  <!-- OLMC8 pin22 rows 11-20 -->
  <rect x="0" y="172" width="218" height="80" fill="#a5d6a7"/>
  <text x="2"  y="183" class="lbl">rows 11–20  OLMC8 / pin 22</text>
  <text x="2"  y="194" class="lbl">(10 product terms)</text>
  <text x="2"  y="205" class="small">fuses 484–923</text>

  <!-- OLMC8 SP row 21 -->
  <rect x="0" y="252" width="218" height="8" fill="#b71c1c"/>
  <text x="2"  y="259" class="lbl-w">row 21  SP   pin 22</text>
  <text x="148" y="259" class="lbl-w" font-size="9">924–967</text>

  <!-- OLMC7 pin21 rows 22-33 -->
  <rect x="0" y="260" width="218" height="96" fill="#90caf9"/>
  <text x="2"  y="271" class="lbl">rows 22–33  OLMC7 / pin 21</text>
  <text x="2"  y="282" class="lbl">(12 product terms)</text>
  <text x="2"  y="293" class="small">fuses 968–1495</text>

  <!-- OLMC7 SP row 34 -->
  <rect x="0" y="356" width="218" height="8" fill="#b71c1c"/>
  <text x="2"  y="363" class="lbl-w">row 34  SP   pin 21</text>
  <text x="148" y="363" class="lbl-w" font-size="9">1496–1539</text>

  <!-- OLMC6 pin20 rows 35-48 -->
  <rect x="0" y="364" width="218" height="112" fill="#a5d6a7"/>
  <text x="2"  y="375" class="lbl">rows 35–48  OLMC6 / pin 20</text>
  <text x="2"  y="386" class="lbl">(14 product terms)</text>
  <text x="2"  y="397" class="small">fuses 1540–2155</text>

  <!-- OLMC6 SP row 49 -->
  <rect x="0" y="476" width="218" height="8" fill="#b71c1c"/>
  <text x="2"  y="483" class="lbl-w">row 49  SP   pin 20</text>
  <text x="148" y="483" class="lbl-w" font-size="9">2156–2199</text>

  <!-- OLMC5 pin19 rows 50-65 -->
  <rect x="0" y="484" width="218" height="128" fill="#90caf9"/>
  <text x="2"  y="495" class="lbl">rows 50–65  OLMC5 / pin 19</text>
  <text x="2"  y="506" class="lbl">(16 product terms)</text>
  <text x="2"  y="517" class="small">fuses 2200–2903</text>

  <!-- OLMC5 SP row 66 -->
  <rect x="0" y="612" width="218" height="8" fill="#b71c1c"/>
  <text x="2"  y="619" class="lbl-w">row 66  SP   pin 19</text>
  <text x="148" y="619" class="lbl-w" font-size="9">2904–2947</text>

  <!-- OLMC4 pin18 rows 67-82 -->
  <rect x="0" y="620" width="218" height="128" fill="#a5d6a7"/>
  <text x="2"  y="631" class="lbl">rows 67–82  OLMC4 / pin 18</text>
  <text x="2"  y="642" class="lbl">(16 product terms)</text>
  <text x="2"  y="653" class="small">fuses 2948–3651</text>

  <!-- OLMC4 SP row 83 -->
  <rect x="0" y="748" width="218" height="8" fill="#b71c1c"/>
  <text x="2"  y="755" class="lbl-w">row 83  SP   pin 18</text>
  <text x="148" y="755" class="lbl-w" font-size="9">3652–3695</text>

  <!-- OLMC3 pin17 rows 84-97 -->
  <rect x="0" y="756" width="218" height="112" fill="#90caf9"/>
  <text x="2"  y="767" class="lbl">rows 84–97  OLMC3 / pin 17</text>
  <text x="2"  y="778" class="lbl">(14 product terms)</text>
  <text x="2"  y="789" class="small">fuses 3696–4311</text>

  <!-- OLMC3 SP row 98 -->
  <rect x="0" y="868" width="218" height="8" fill="#b71c1c"/>
  <text x="2"  y="875" class="lbl-w">row 98  SP   pin 17</text>
  <text x="148" y="875" class="lbl-w" font-size="9">4312–4355</text>

  <!-- OLMC2 pin16 rows 99-110 -->
  <rect x="0" y="876" width="218" height="96" fill="#a5d6a7"/>
  <text x="2"  y="887" class="lbl">rows 99–110  OLMC2 / pin 16</text>
  <text x="2"  y="898" class="lbl">(12 product terms)</text>
  <text x="2"  y="909" class="small">fuses 4356–4883</text>

  <!-- OLMC2 SP row 111 -->
  <rect x="0" y="972" width="218" height="8" fill="#b71c1c"/>
  <text x="2"  y="979" class="lbl-w">row 111  SP   pin 16</text>
  <text x="148" y="979" class="lbl-w" font-size="9">4884–4927</text>

  <!-- OLMC1 pin15 rows 112-121 -->
  <rect x="0" y="980" width="218" height="80" fill="#90caf9"/>
  <text x="2"  y="991" class="lbl">rows 112–121  OLMC1 / pin 15</text>
  <text x="2"  y="1002" class="lbl">(10 product terms)</text>
  <text x="2"  y="1013" class="small">fuses 4928–5367</text>

  <!-- OLMC1 SP row 122 -->
  <rect x="0" y="1060" width="218" height="8" fill="#b71c1c"/>
  <text x="2"  y="1067" class="lbl-w">row 122  SP   pin 15</text>
  <text x="148" y="1067" class="lbl-w" font-size="9">5368–5411</text>

  <!-- OLMC0 pin14 rows 123-130 -->
  <rect x="0" y="1068" width="218" height="64" fill="#a5d6a7"/>
  <text x="2"  y="1079" class="lbl">rows 123–130  OLMC0 / pin 14</text>
  <text x="2"  y="1090" class="lbl">(8 product terms)</text>
  <text x="2"  y="1101" class="small">fuses 5412–5763</text>

  <!-- OLMC0 SP row 131 -->
  <rect x="0" y="1132" width="218" height="8" fill="#b71c1c"/>
  <text x="2"  y="1139" class="lbl-w">row 131  SP   pin 14</text>
  <text x="148" y="1139" class="lbl-w" font-size="9">5764–5807</text>

  <!-- ══════════════════════════════════════════════════════
       TRUE / COMPLEMENT sub-label strip at very bottom of grid
  ══════════════════════════════════════════════════════ -->
  <rect x="220" y="1140" width="704" height="12" fill="#eceff1"/>
  <!-- T = true, C = complement under each pair -->
  <text x="224"  y="1149" class="small">T C</text>
  <text x="256"  y="1149" class="small">T C</text>
  <text x="288"  y="1149" class="small">T C</text>
  <text x="320"  y="1149" class="small">T C</text>
  <text x="352"  y="1149" class="small">T C</text>
  <text x="384"  y="1149" class="small">T C</text>
  <text x="416"  y="1149" class="small">T C</text>
  <text x="448"  y="1149" class="small">T C</text>
  <text x="480"  y="1149" class="small">T C</text>
  <text x="512"  y="1149" class="small">T C</text>
  <text x="544"  y="1149" class="small">T C</text>
  <text x="576"  y="1149" class="small">T C</text>
  <text x="608"  y="1149" class="small">T C</text>
  <text x="640"  y="1149" class="small">T C</text>
  <text x="672"  y="1149" class="small">T C</text>
  <text x="704"  y="1149" class="small">T C</text>
  <text x="736"  y="1149" class="small">T C</text>
  <text x="768"  y="1149" class="small">T C</text>
  <text x="800"  y="1149" class="small">T C</text>
  <text x="832"  y="1149" class="small">T C</text>
  <text x="864"  y="1149" class="small">T C</text>
  <text x="896"  y="1149" class="small">T C</text>

  <!-- ══════════════════════════════════════════════════════
       FUSE FORMULA + EXAMPLE BOX
  ══════════════════════════════════════════════════════ -->
  <rect x="10" y="1158" width="1080" height="130" rx="6" fill="#fff9c4" stroke="#f9a825" stroke-width="1.5"/>
  <text x="22" y="1174" font-size="12" font-weight="bold" fill="#e65100">Fuse Address Formula</text>

  <text x="22"  y="1192" class="formula">fuse = row × 44 + column</text>
  <text x="300" y="1192" class="note">   where  column = true_col  (even)  or  true_col + 1  (complement)</text>

  <text x="22"  y="1210" font-size="11" font-weight="bold" fill="#1b5e20">Column address for a pin:</text>
  <text x="22"  y="1224" class="note">  pin 1  (CLK)          → true col = 0</text>
  <text x="22"  y="1237" class="note">  pin 2–11  (inputs)    → true col = 4 × (pin − 1)</text>
  <text x="340" y="1237" class="note">  pin 13  (I11)         → true col = 42</text>
  <text x="22"  y="1250" class="note">  pin 14–23  (feedback) → true col = 94 − 4 × pin</text>

  <text x="630" y="1210" font-size="11" font-weight="bold" fill="#1a237e">Worked example:</text>
  <text x="630" y="1224" class="note">  OLMC9 (pin 23), 1st PT row = 2, pin 2 (I1) true literal:</text>
  <text x="630" y="1237" class="note">  col = 4 × (2 − 1) = 4</text>
  <text x="630" y="1250" class="note">  fuse = 2 × 44 + 4 = </text>
  <text x="822" y="1250" font-size="11" font-weight="bold" fill="#b71c1c">fuse 92</text>

  <!-- fuse value meaning -->
  <text x="22" y="1278" font-size="10" fill="#444">Fuse value: <tspan font-weight="bold" fill="#2e7d32">0</tspan> = literal connected to AND gate (active)   <tspan font-weight="bold" fill="#b71c1c">1</tspan> = disconnected (don't-care).   All-ones row = disabled product term.</text>
</svg>
